<svg xmlns="http://www.w3.org/2000/svg" xmlns:xlink="http://www.w3.org/1999/xlink" xmlns:inkscape="http://www.inkscape.org/namespaces/inkscape" version="1.1" width="360" height="110" viewBox="140 345 360 110">
<defs>
<clipPath id="clip_1">
<path transform="matrix(1,0,0,-1,0,841.89)" d="M0 841.89H595.276V0H0Z"/>
</clipPath>
</defs>
<g inkscape:groupmode="layer" inkscape:label="katman 1">
<g clip-path="url(#clip_1)">
<path transform="matrix(1,0,0,-1,223.8516,361.72334)" d="M0 0C-3.167 1.156-6.654 2.147-10.459 2.969-14.266 3.791-18.224 4.431-22.334 4.887-26.445 5.344-30.647 5.618-34.94 5.709-39.234 5.801-43.421 5.664-47.501 5.298-50.424 5.054-53.438 4.627-56.544 4.02-59.65 3.41-62.665 2.572-65.588 1.507-68.511 .441-71.221-.883-73.718-2.466-76.215-4.05-78.285-5.937-79.929-8.13-80.843-7.826-81.437-7.339-81.71-6.668-81.984-5.999-82.213-5.329-82.396-4.659-82.274-3.745-82.016-2.969-81.619-2.329-81.224-1.69-80.721-1.127-80.112-.639-77.312 1.553-73.87 3.364-69.79 4.796-65.71 6.226-61.31 7.354-56.59 8.176-51.871 8.998-46.984 9.515-41.929 9.729-36.875 9.941-31.942 9.88-27.13 9.546-22.32 9.21-17.783 8.663-13.52 7.902-9.258 7.14-5.604 6.181-2.558 5.024-1.402 4.598-.609 4.049-.183 3.38 .243 2.709 .304 1.583 0 0M-77.098-24.755C-78.986-25.182-80.66-25.531-82.122-25.806-83.583-26.08-85.076-26.339-86.598-26.582-86.842-26.216-87.07-25.837-87.283-25.44-87.497-25.045-87.648-24.695-87.739-24.39-87.831-24.085-87.785-23.796-87.603-23.522-87.42-23.248-87.054-23.02-86.506-22.836-84.192-22.167-81.848-21.558-79.473-21.01-77.098-20.461-74.722-19.854-72.347-19.183-72.165-19.062-71.922-18.97-71.617-18.909-71.313-18.849-70.826-18.757-70.155-18.635-69.182-17.539-68.085-16.351-66.867-15.072-65.649-13.793-64.4-12.455-63.121-11.053-61.965-9.835-60.823-8.557-59.696-7.216-58.57-5.877-57.366-4.507-56.087-3.105-55.662-3.471-55.281-3.822-54.946-4.156-54.612-4.492-54.292-4.811-53.986-5.115-54.475-6.334-55.068-7.43-55.768-8.404-56.469-9.378-57.229-10.338-58.051-11.281-58.874-12.226-59.727-13.169-60.609-14.113-61.493-15.058-62.299-16.077-63.03-17.173-61.326-16.931-59.741-16.687-58.28-16.442-56.818-16.2-55.388-16.017-53.986-15.894-50.759-15.651-47.546-15.408-44.349-15.164-41.152-14.921-37.971-14.707-34.804-14.524-34.438-14.464-34.073-14.448-33.708-14.479-33.342-14.51-32.947-14.556-32.52-14.615-31.851-14.677-31.318-14.768-30.921-14.89-30.526-15.012-30.19-15.209-29.917-15.483-29.643-15.757-29.414-16.168-29.231-16.716-29.049-17.265-28.836-17.995-28.592-18.909-29.201-19.518-30.085-20.279-31.241-21.192-31.546-20.706-31.866-20.233-32.2-19.776-32.536-19.32-32.855-18.849-33.159-18.361-39.188-18.849-45.126-19.488-50.972-20.279-56.818-21.071-62.696-21.984-68.602-23.02-68.846-23.142-69.075-23.264-69.287-23.385-69.501-23.507-69.668-23.629-69.79-23.75-74.053-28.014-78.209-32.323-82.259-36.676-86.309-41.031-90.16-45.582-93.814-50.333-95.216-52.099-96.495-53.986-97.651-55.996-98.381-57.397-98.747-58.554-98.747-59.467-98.747-60.38-98.457-61.065-97.879-61.522-97.301-61.979-96.479-62.239-95.413-62.298-94.348-62.36-93.175-62.239-91.896-61.933-88.059-61.142-84.284-60.38-80.569-59.65-76.855-58.919-73.14-58.128-69.424-57.275-62.299-55.63-55.251-53.956-48.277-52.25-41.305-50.546-34.255-48.841-27.13-47.135-26.217-46.893-25.303-46.71-24.39-46.587-23.477-46.466-22.503-46.344-21.467-46.222-21.163-46.71-20.873-47.181-20.599-47.638-20.325-48.094-19.975-48.567-19.548-49.053-20.158-49.297-20.645-49.48-21.01-49.602-21.375-49.724-21.711-49.846-22.015-49.967-31.394-52.221-40.681-54.489-49.876-56.772-59.072-59.056-68.328-61.325-77.646-63.578-80.509-64.308-83.355-64.932-86.187-65.45-89.018-65.966-91.896-66.165-94.819-66.043-95.915-65.982-96.965-65.799-97.97-65.496-98.975-65.19-99.873-64.612-100.665-63.76-101.821-62.542-102.568-61.218-102.903-59.787-103.237-58.356-103.009-56.879-102.218-55.356-100.878-52.374-99.295-49.754-97.468-47.5-94.728-44.273-91.941-41.122-89.11-38.046-86.278-34.972-83.492-31.85-80.751-28.683-80.203-28.075-79.655-27.481-79.107-26.902-78.559-26.324-77.89-25.608-77.098-24.755" fill="#2c2f31"/>
<path transform="matrix(1,0,0,-1,233.625,390.13203)" d="M0 0C-1.279 .973-2.681 1.233-4.202 .776-5.725 .319-7.217-.518-8.678-1.736-10.14-2.955-11.48-4.4-12.698-6.075-13.917-7.75-14.86-9.318-15.529-10.779-12.606-9.075-9.866-7.339-7.308-5.572-4.75-3.807-2.315-1.95 0 0M-11.418-13.702C-13.186-14.25-14.556-14.647-15.529-14.89-16.503-15.134-17.295-15.195-17.904-15.073-18.512-14.951-19.046-14.647-19.503-14.159-19.959-13.672-20.553-12.972-21.284-12.058-21.162-11.693-21.04-11.267-20.919-10.779-20.796-10.292-20.583-9.806-20.279-9.318-18.818-6.821-17.142-4.567-15.255-2.558-13.368-.548-11.145 1.156-8.587 2.558-6.821 3.531-5.086 4.095-3.38 4.248-1.676 4.399 .06 3.714 1.827 2.192 2.375 2.679 2.923 3.12 3.471 3.517 4.019 3.912 4.627 4.384 5.298 4.933 5.664 4.506 6.059 4.11 6.485 3.745 6.911 3.38 7.368 2.953 7.855 2.466 5.541-.701 3.12-3.731 .594-6.623-1.934-9.516-4.476-12.697-7.034-16.168-2.589-14.038 1.613-12.012 5.572-10.094 9.53-8.176 13.853-6.365 18.543-4.659 18.848-4.964 19.06-5.497 19.183-6.257 19.304-7.02 19.03-7.552 18.36-7.856 12.636-10.171 7.018-12.82 1.507-15.803-4.005-18.788-9.44-22.412-14.798-26.674-15.833-27.466-16.822-28.304-17.767-29.186-18.711-30.069-19.64-30.999-20.553-31.972-23.111-34.835-25.638-37.681-28.135-40.513-30.632-43.344-33.189-46.19-35.809-49.054-37.147-50.453-38.503-51.808-39.874-53.118-41.244-54.427-42.842-55.599-44.669-56.635-45.277-56.147-45.825-55.722-46.313-55.356-46.8-54.991-47.287-54.655-47.775-54.352-47.775-53.925-47.789-53.575-47.821-53.301-47.851-53.027-47.805-52.828-47.684-52.707-46.405-51.002-45.14-49.266-43.893-47.5-42.644-45.733-41.258-44.12-39.736-42.659-37.361-40.284-34.909-37.984-32.383-35.763-29.855-33.54-27.313-31.333-24.755-29.14-22.136-26.948-19.761-24.588-17.63-22.061-15.5-19.534-13.428-16.899-11.418-14.159-11.359-14.038-11.343-13.962-11.373-13.931-11.404-13.901-11.418-13.825-11.418-13.702" fill="#2c2f31"/>
<path transform="matrix(1,0,0,-1,263.4941,382.73313)" d="M0 0C1.462 3.044 2.74 4.78 3.837 5.207 4.933 5.632 6.212 4.963 7.673 3.197 6.819 2.405 5.983 1.613 5.161 .822 4.339 .03 3.439-.792 2.467-1.644 2.04-1.401 1.613-1.142 1.187-.868 .761-.594 .365-.305 0 0M-13.428-13.702C-11.54-11.388-10.003-9.562-8.815-8.221-7.628-6.882-6.684-5.832-5.983-5.07-5.284-4.309-4.735-3.761-4.339-3.425-3.943-3.091-3.594-2.802-3.288-2.558L-.457-5.024C-2.162-6.791-3.882-8.481-5.618-10.094-7.354-11.708-8.892-13.489-10.23-15.438-10.719-16.108-11.084-16.793-11.327-17.493-11.569-18.194-11.631-18.803-11.51-19.32-11.389-19.838-11.039-20.188-10.459-20.371-9.881-20.553-9.043-20.462-7.947-20.096-5.695-19.244-3.699-18.483-1.964-17.812-.229-17.144 1.431-16.504 3.015-15.895 4.598-15.287 6.196-14.677 7.811-14.067 9.423-13.459 11.204-12.759 13.154-11.966 13.702-11.845 14.188-11.907 14.615-12.149 15.041-12.393 15.315-12.911 15.438-13.702 12.88-14.798 10.597-15.743 8.587-16.534 6.577-17.326 4.506-18.209 2.375-19.183 .365-20.096-1.689-21.071-3.791-22.106-5.892-23.142-7.888-23.72-9.774-23.842-11.053-23.964-12.104-23.675-12.926-22.974-13.748-22.274-14.326-21.391-14.661-20.325-14.995-19.26-15.072-18.118-14.89-16.899-14.707-15.682-14.219-14.616-13.428-13.702" fill="#2c2f31"/>
<path transform="matrix(1,0,0,-1,321.1338,397.0744)" d="M0 0C-.183-.123-.365-.229-.548-.32-.73-.411-.913-.519-1.096-.64-2.133-1.187-3.137-1.645-4.11-2.01-6.547-3.046-9.014-4.035-11.51-4.979-14.008-5.923-16.595-6.577-19.274-6.942-19.945-7.065-20.63-7.125-21.329-7.125-22.03-7.125-22.716-7.034-23.385-6.851-25.029-6.365-26.232-5.542-26.993-4.385-27.755-3.229-27.983-1.797-27.679-.092-27.618 .639-27.512 1.354-27.358 2.055-27.207 2.754-27.039 3.592-26.856 4.567-30.327 3.654-33.54 2.284-36.493 .457-39.448-1.371-42.294-3.38-45.034-5.572L-48.506-8.13-51.063-6.212C-50.393-4.629-49.511-3.304-48.414-2.238-47.318-1.173-46.282-.062-45.309 1.096-44.455 2.252-43.589 3.425-42.705 4.613-41.823 5.8-40.863 7.063-39.827 8.404-39.402 8.16-39.051 7.931-38.777 7.719-38.503 7.504-38.215 7.308-37.909 7.125-37.971 6.577-38.062 5.998-38.184 5.389-38.306 4.78-38.428 4.11-38.549 3.38-36.601 4.232-34.728 5.054-32.931 5.846-31.135 6.637-29.384 7.368-27.679 8.039-26.582 7.55-25.729 7.125-25.12 6.759-24.513 6.394-24.07 5.998-23.796 5.572-23.521 5.145-23.371 4.627-23.339 4.019-23.31 3.41-23.385 2.649-23.567 1.735-23.75 .761-23.933-.199-24.115-1.142-24.299-2.087-24.086-2.955-23.477-3.746-19.519-3.259-15.712-2.421-12.058-1.233-8.404-.046-4.658 1.309-.822 2.832Z" fill="#2c2f31"/>
<path transform="matrix(1,0,0,-1,335.8408,381.4543)" d="M0 0C2.435 1.156 4.887 2.375 7.354 3.654 9.819 4.933 12.209 6.288 14.524 7.719 16.838 9.149 19.046 10.688 21.146 12.332 23.248 13.976 25.15 15.803 26.856 17.813 24.42 16.959 21.969 15.895 19.503 14.616 17.036 13.337 14.646 11.905 12.332 10.322 10.017 8.738 7.811 7.064 5.709 5.298 3.608 3.531 1.704 1.766 0 0M12.697-6.942C10.564-7.187 8.389-7.582 6.166-8.13 3.942-8.678 1.796-9.333-.274-10.094-2.345-10.856-4.202-11.663-5.847-12.515-7.49-13.368-8.77-14.25-9.683-15.164-5.664-14.616-1.843-13.672 1.781-12.332 5.403-10.993 9.043-9.196 12.697-6.942M34.438-13.154C34.742-14.556 34.895-15.362 34.895-15.575 34.895-15.789 34.863-15.895 34.804-15.895 31.393-17.234 27.846-18.635 24.161-20.096 20.476-21.558 16.808-22.686 13.154-23.476 11.145-23.964 9.149-24.33 7.171-24.572 5.191-24.816 3.228-24.999 1.279-25.121-.548-25.243-2.162-25.121-3.563-24.755-4.964-24.39-6.243-23.873-7.399-23.202-8.557-22.533-9.669-21.741-10.733-20.827-11.8-19.914-12.941-19-14.159-18.087-15.072-19.183-15.712-20.142-16.077-20.964-16.442-21.786-16.701-22.457-16.854-22.974-17.005-23.492-17.157-23.873-17.311-24.116-17.462-24.36-17.751-24.481-18.178-24.481-19.334-24.36-20.172-23.979-20.69-23.339-21.207-22.7-21.314-21.863-21.01-20.827-20.462-19.183-19.67-17.539-18.635-15.895-16.077-12.058-13.276-8.465-10.231-5.115-7.187-1.767-3.928 1.4-.457 4.385 3.684 8.039 7.824 11.373 11.967 14.387 16.107 17.402 20.521 19.7 25.212 21.284 25.76 21.405 26.368 21.513 27.039 21.604 27.708 21.695 28.348 21.68 28.957 21.558 29.87 21.314 30.51 20.933 30.875 20.417 31.241 19.898 31.424 19.35 31.424 18.772 31.424 18.192 31.255 17.599 30.921 16.991 30.586 16.381 30.175 15.863 29.687 15.438 27.556 12.819 25.089 10.535 22.289 8.587 19.487 6.637 16.534 4.856 13.428 3.243 10.322 1.628 7.171 .122 3.974-1.279 .776-2.68-2.284-4.11-5.207-5.572L-9.5-10.048C-8.648-9.806-7.993-9.653-7.536-9.591-7.079-9.531-6.668-9.379-6.303-9.135-3.807-8.161-1.34-7.248 1.096-6.394 3.531-5.542 6.089-4.903 8.77-4.476 9.5-4.293 10.215-4.172 10.916-4.11 11.615-4.051 12.301-4.019 12.972-4.019 15.164-4.142 16.473-5.147 16.899-7.034 16.655-8.07 16.229-8.801 15.62-9.226 15.011-9.653 14.371-10.08 13.702-10.505 11.387-11.784 9.271-12.804 7.354-13.565 5.436-14.327 3.563-14.951 1.735-15.438-.092-15.926-1.95-16.351-3.837-16.716-5.725-17.082-7.765-17.509-9.957-17.996-9.104-19.397-8.07-20.356-6.852-20.873-5.634-21.391-4.385-21.71-3.105-21.832-.548-22.015 1.964-21.969 4.431-21.695 6.896-21.421 9.348-21.01 11.784-20.462 15.62-19.61 19.441-18.514 23.248-17.173 27.053-15.834 30.784-14.494 34.438-13.154" fill="#2c2f31"/>
<path transform="matrix(1,0,0,-1,369.4561,401.5505)" d="M0 0C1.583 .852 3.061 1.658 4.431 2.42 5.801 3.181 7.14 3.958 8.45 4.75 9.759 5.541 11.083 6.394 12.424 7.308 13.763 8.221 15.194 9.226 16.717 10.322 13.246 10.505 10.17 9.834 7.491 8.313 4.811 6.79 2.314 4.019 0 0M19.457 13.154C20.31 13.702 21.056 14.219 21.695 14.707 22.335 15.193 22.988 15.711 23.659 16.26 24.146 15.833 24.618 15.438 25.075 15.072 25.532 14.707 26.003 14.28 26.491 13.793 24.785 12.026 23.065 10.336 21.33 8.724 19.595 7.109 18.056 5.328 16.717 3.38 16.229 2.709 15.834 2.009 15.529 1.279 15.224 .548 15.087-.077 15.118-.594 15.148-1.112 15.423-1.432 15.94-1.553 16.457-1.676 17.325-1.493 18.544-1.005 20.796-.153 22.806 .594 24.573 1.233 26.339 1.873 28.044 2.48 29.688 3.06 31.333 3.638 32.991 4.216 34.667 4.795 36.341 5.374 38.152 6.059 40.102 6.851 40.65 6.972 41.137 6.911 41.563 6.668 41.989 6.424 42.263 5.906 42.386 5.115 40.559 4.323 38.883 3.623 37.361 3.014 35.839 2.405 34.347 1.781 32.886 1.142 31.424 .502 29.917-.168 28.364-.868 26.811-1.569 25.121-2.375 23.294-3.289 20.371-4.629 17.798-5.04 15.575-4.522 13.352-4.005 11.632-2.224 10.414 .822 8.587-.274 6.973-1.265 5.572-2.147 4.171-3.03 2.771-3.898 1.371-4.75 .64-5.177 .017-5.481-.502-5.664-1.019-5.846-1.521-5.878-2.009-5.755-2.496-5.634-3.014-5.36-3.563-4.933-4.11-4.508-4.81-3.928-5.663-3.197-5.298-.64-4.627 1.384-3.653 2.877-2.679 4.369-1.399 5.814 .184 7.216 .608 7.521 1.02 7.856 1.416 8.221 1.812 8.586 2.253 8.952 2.741 9.317 5.176 11.144 7.765 12.483 10.506 13.336 13.246 14.188 16.229 14.127 19.457 13.154" fill="#2c2f31"/>
<path transform="matrix(1,0,0,-1,423.7148,403.195)" d="M0 0C-.305-.365-.762-.929-1.37-1.69-1.979-2.452-2.406-3.014-2.648-3.38-.579-2.528 1.508-1.553 3.608-.457 5.71 .64 7.765 1.72 9.774 2.786 11.784 3.851 13.702 4.887 15.529 5.892 17.356 6.897 19.061 7.733 20.645 8.404 21.193 7.185 21.451 6.395 21.422 6.029 21.39 5.664 21.314 5.45 21.193 5.39 18.147 3.805 14.89 2.177 11.419 .502 7.947-1.173 4.872-2.802 2.192-4.385-1.34-6.517-4.217-8.586-6.439-10.596-8.663-12.606-10.582-14.57-12.194-16.488-13.808-18.406-15.284-20.264-16.625-22.06-17.964-23.855-19.517-25.577-21.283-27.221-22.015-27.89-22.805-28.545-23.658-29.185-24.511-29.825-25.577-30.204-26.855-30.327L-29.596-27.952C-29.596-27.221-29.535-26.733-29.413-26.49-28.804-24.906-27.981-23.505-26.947-22.289-25.911-21.071-24.814-19.945-23.658-18.909-22.074-17.387-20.491-15.91-18.908-14.479-17.324-13.048-15.65-11.724-13.885-10.505-11.57-8.922-9.577-6.988-7.901-4.704-6.227-2.42-4.445 0-2.558 2.558-4.263 2.07-5.907 1.492-7.49 .822-9.074 .151-10.657-.457-12.24-1.005-13.336-.457-14.204 .046-14.844 .502-15.483 .959-15.924 1.446-16.168 1.964-16.411 2.481-16.456 3.075-16.305 3.745-16.152 4.415-15.862 5.237-15.438 6.212-14.523 8.16-13.322 10.078-11.829 11.967-10.338 13.854-8.739 15.438-7.033 16.717L-5.023 14.798C-6.791 13.031-8.328 11.174-9.637 9.226-10.947 7.276-12.058 5.024-12.971 2.466-10.596 2.953-8.465 3.729-6.576 4.796-4.689 5.861-2.831 6.973-1.004 8.13 .64 9.226 2.253 10.428 3.837 11.738 5.42 13.047 7.094 14.402 8.861 15.803 9.044 15.621 9.302 15.392 9.638 15.118 9.972 14.844 10.414 14.524 10.962 14.159 9.926 12.94 8.937 11.768 7.993 10.642 7.049 9.515 6.15 8.404 5.299 7.308 4.445 6.271 3.608 5.146 2.786 3.928 1.965 2.709 1.035 1.4 0 0" fill="#2c2f31"/>
<path transform="matrix(1,0,0,-1,444.084,401.5505)" d="M0 0C1.583 .852 3.061 1.658 4.431 2.42 5.801 3.181 7.14 3.958 8.45 4.75 9.759 5.541 11.083 6.394 12.424 7.308 13.763 8.221 15.194 9.226 16.717 10.322 13.246 10.505 10.17 9.834 7.491 8.313 4.811 6.79 2.314 4.019 0 0M19.457 13.154C20.31 13.702 21.056 14.219 21.695 14.707 22.335 15.193 22.988 15.711 23.659 16.26 24.146 15.833 24.618 15.438 25.075 15.072 25.532 14.707 26.003 14.28 26.491 13.793 24.785 12.026 23.065 10.336 21.33 8.724 19.595 7.109 18.056 5.328 16.717 3.38 16.229 2.709 15.834 2.009 15.529 1.279 15.224 .548 15.087-.077 15.118-.594 15.148-1.112 15.423-1.432 15.94-1.553 16.457-1.676 17.325-1.493 18.544-1.005 20.796-.153 22.806 .594 24.573 1.233 26.339 1.873 28.044 2.48 29.688 3.06 31.333 3.638 32.991 4.216 34.667 4.795 36.341 5.374 38.152 6.059 40.102 6.851 40.65 6.972 41.137 6.911 41.563 6.668 41.989 6.424 42.263 5.906 42.386 5.115 40.559 4.323 38.883 3.623 37.361 3.014 35.839 2.405 34.347 1.781 32.886 1.142 31.424 .502 29.917-.168 28.364-.868 26.811-1.569 25.121-2.375 23.294-3.289 20.371-4.629 17.798-5.04 15.575-4.522 13.352-4.005 11.632-2.224 10.414 .822 8.587-.274 6.973-1.265 5.572-2.147 4.171-3.03 2.771-3.898 1.371-4.75 .64-5.177 .017-5.481-.502-5.664-1.019-5.846-1.521-5.878-2.009-5.755-2.496-5.634-3.014-5.36-3.563-4.933-4.11-4.508-4.81-3.928-5.663-3.197-5.298-.64-4.627 1.384-3.653 2.877-2.679 4.369-1.399 5.814 .184 7.216 .608 7.521 1.02 7.856 1.416 8.221 1.812 8.586 2.253 8.952 2.741 9.317 5.176 11.144 7.765 12.483 10.506 13.336 13.246 14.188 16.229 14.127 19.457 13.154" fill="#2c2f31"/>
<path transform="matrix(1,0,0,-1,284.1104,430.3947)" d="M0 0H.061C.073-.348 .204-.646 .452-.893 .699-1.141 .997-1.264 1.345-1.264H1.605V-1.465H0ZM0 11.12V12.585H1.605V12.385H1.345C.997 12.385 .699 12.261 .452 12.014 .204 11.766 .073 11.468 .061 11.12ZM-1.746 13.87C-2.121 13.87-2.442 14.004-2.71 14.271-2.978 14.539-3.111 14.86-3.111 15.235-3.111 15.609-2.978 15.931-2.71 16.199-2.442 16.466-2.121 16.6-1.746 16.6-1.358 16.6-1.033 16.466-.772 16.199-.512 15.931-.381 15.609-.381 15.235-.381 14.86-.512 14.539-.772 14.271-1.033 14.004-1.358 13.87-1.746 13.87M.061-1.465H-3.4919999V12.585H.061ZM-3.433 0V-1.465H-5.038V-1.264H-4.777C-4.43-1.264-4.132-1.141-3.884-.893-3.637-.646-3.506-.348-3.492 0ZM-3.433 11.12H-3.492C-3.506 11.468-3.637 11.766-3.884 12.014-4.132 12.261-4.43 12.385-4.777 12.385H-5.038V12.585H-3.433Z" fill="#cb363b"/>
<path transform="matrix(1,0,0,-1,303.4404,417.80934)" d="M0 0V-.201H-.361C-.696-.201-.983-.318-1.225-.552-1.465-.786-1.593-1.077-1.605-1.425H-1.666V0ZM-1.605 0V-11.762C-1.605-12.284-1.582-12.739-1.535-13.126-1.488-13.515-1.432-13.917-1.365-14.332H-1.546L-5.078-10.377V0ZM-6.704 0H-5.038V-1.425H-5.078C-5.092-1.077-5.216-.786-5.449-.552-5.684-.318-5.975-.201-6.323-.201H-6.704ZM-11.421-12.625C-11.421-12.959-11.301-13.248-11.06-13.488-10.819-13.729-10.531-13.849-10.197-13.849H-9.815V-14.05H-11.481V-12.625ZM-14.954 .301-1.786-11.822-1.546-14.332-14.713-2.228ZM-14.954 .301-11.441-3.412-11.421-14.05H-14.914V-2.208C-14.914-1.445-14.994-.609-15.154 .301ZM-14.854-12.625V-14.05H-16.52V-13.849H-16.139C-15.804-13.849-15.516-13.729-15.275-13.488-15.034-13.248-14.914-12.959-14.914-12.625Z" fill="#cb363b"/>
<path transform="matrix(1,0,0,-1,314.1582,417.72874)" d="M0 0-.06-.422H-2.689V0ZM-4.937-14.372H-3.834L-4.677-15.355C-4.503-15.288-4.282-15.255-4.015-15.255-3.747-15.255-3.479-15.292-3.212-15.365-2.944-15.438-2.729-15.576-2.569-15.776-2.408-15.978-2.335-16.252-2.349-16.6-2.375-17.055-2.576-17.439-2.95-17.754-3.325-18.068-3.783-18.275-4.325-18.376-4.867-18.477-5.413-18.439-5.961-18.266L-5.941-18.065C-5.66-18.065-5.369-18.015-5.068-17.914-4.767-17.814-4.506-17.653-4.285-17.433-4.064-17.212-3.934-16.928-3.894-16.58-3.867-16.299-3.964-16.088-4.185-15.947-4.406-15.807-4.67-15.727-4.978-15.707-5.286-15.687-5.56-15.729-5.801-15.837L-5.901-15.637ZM-4.476 .201C-4.209 .201-3.851 .187-3.402 .16-2.954 .133-2.492 .097-2.018 .05-1.542 .003-1.124-.044-.763-.09-.401-.138-.16-.188-.04-.241L-.361-3.111H-.562C-.562-2.402-.833-1.827-1.375-1.385-1.917-.944-2.649-.723-3.573-.723-4.376-.723-5.015-.894-5.489-1.235-5.965-1.576-6.216-2.007-6.242-2.529-6.282-2.971-6.142-3.333-5.821-3.613-5.5-3.895-5.111-4.155-4.656-4.396L-.863-6.523C-.181-6.858 .345-7.326 .713-7.929 1.081-8.53 1.237-9.26 1.185-10.116 1.117-11.495 .572-12.555-.451-13.298-1.476-14.041-2.863-14.412-4.616-14.412-5.299-14.412-5.935-14.358-6.523-14.251-7.112-14.144-7.627-13.994-8.069-13.8-8.511-13.605-8.858-13.388-9.113-13.147-9.233-12.84-9.283-12.458-9.264-12.003-9.243-11.549-9.166-11.097-9.032-10.648-8.898-10.2-8.738-9.835-8.551-9.555H-8.37C-8.41-10.25-8.273-10.899-7.959-11.501-7.645-12.104-7.173-12.585-6.544-12.946-5.915-13.308-5.165-13.488-4.295-13.488-3.372-13.476-2.673-13.261-2.198-12.847-1.723-12.432-1.485-11.943-1.485-11.381-1.485-10.953-1.633-10.568-1.927-10.227-2.222-9.886-2.696-9.555-3.352-9.233L-6.744-7.307C-7.561-6.892-8.152-6.34-8.521-5.65-8.889-4.961-9.026-4.196-8.933-3.353-8.865-2.617-8.645-1.984-8.27-1.456-7.896-.927-7.387-.519-6.744-.231-6.102 .057-5.346 .201-4.476 .201" fill="#cb363b"/>
<path transform="matrix(1,0,0,-1,325.2793,430.3947)" d="M0 0H4.135C4.349-.455 4.62-.779 4.948-.973 5.275-1.167 5.594-1.264 5.901-1.264H6.062V-1.465H-.943V-1.264H-.763C-.495-1.264-.258-1.153-.05-.933 .157-.712 .174-.401 0 0M-1.967 13.027 4.777-1.345H.562L-3.452 8.531ZM-.101 2.168H-5.902V3.092H-.101ZM-1.967 13.027-1.947 10.237-6.905-1.404H-8.45L-3.231 10.217C-3.165 10.311-3.081 10.481-2.98 10.729-2.881 10.976-2.767 11.247-2.64 11.542-2.513 11.836-2.402 12.117-2.309 12.385-2.215 12.652-2.161 12.867-2.147 13.027ZM-6.282 0C-6.403-.268-6.43-.495-6.363-.682-6.296-.869-6.18-1.014-6.012-1.113-5.845-1.214-5.681-1.264-5.52-1.264H-5.339V-1.465H-9.735V-1.264H-9.555C-9.246-1.264-8.929-1.167-8.602-.973-8.273-.779-8.002-.455-7.788 0Z" fill="#cb363b"/>
<path transform="matrix(1,0,0,-1,339.6904,430.3947)" d="M0 0H4.135C4.349-.455 4.62-.779 4.948-.973 5.275-1.167 5.594-1.264 5.901-1.264H6.062V-1.465H-.943V-1.264H-.763C-.495-1.264-.258-1.153-.05-.933 .157-.712 .174-.401 0 0M-1.967 13.027 4.777-1.345H.562L-3.452 8.531ZM-.101 2.168H-5.902V3.092H-.101ZM-1.967 13.027-1.947 10.237-6.905-1.404H-8.45L-3.231 10.217C-3.165 10.311-3.081 10.481-2.98 10.729-2.881 10.976-2.767 11.247-2.64 11.542-2.513 11.836-2.402 12.117-2.309 12.385-2.215 12.652-2.161 12.867-2.147 13.027ZM-6.282 0C-6.403-.268-6.43-.495-6.363-.682-6.296-.869-6.18-1.014-6.012-1.113-5.845-1.214-5.681-1.264-5.52-1.264H-5.339V-1.465H-9.735V-1.264H-9.555C-9.246-1.264-8.929-1.167-8.602-.973-8.273-.779-8.002-.455-7.788 0Z" fill="#cb363b"/>
<path transform="matrix(1,0,0,-1,356.6318,417.42793)" d="M0 0V-.582L-2.449-.361C-2.154-.361-1.844-.341-1.516-.301-1.187-.261-.883-.214-.603-.161-.321-.107-.12-.054 0 0M0-1.224V-3.813L-.201-3.793V-3.613C-.201-2.904-.405-2.342-.812-1.927-1.222-1.512-1.786-1.298-2.509-1.285V-1.224ZM-4.897-12.967H-4.838C-4.824-13.314-4.694-13.612-4.446-13.859-4.198-14.107-3.901-14.23-3.553-14.23H-3.292V-14.432H-4.897ZM-4.838-14.432H-8.391V-.4420004H-4.838ZM-8.33-12.967V-14.432H-9.936V-14.23H-9.675C-9.327-14.23-9.029-14.107-8.782-13.859-8.534-13.612-8.404-13.314-8.391-12.967ZM-10.719-1.224V-1.285C-11.441-1.298-12.007-1.512-12.415-1.927-12.823-2.342-13.027-2.904-13.027-3.613V-3.793L-13.228-3.813V-1.224ZM0-1.285H-13.228V-.362H0ZM-13.228 0C-13.095-.054-12.89-.107-12.615-.161-12.342-.214-12.037-.261-11.702-.301-11.368-.341-11.06-.361-10.779-.361L-13.228-.582Z" fill="#cb363b"/>
<path transform="matrix(1,0,0,-1,226.4473,381.9562)" d="M0 0C-.178 .391-.346 .736-.506 1.039-.666 1.34-.834 1.615-1.012 1.864-.373 2.325 .514 2.743 1.651 3.115 2.787 3.488 4.074 3.808 5.512 4.074 6.949 4.34 8.475 4.553 10.091 4.713 11.706 4.873 13.286 4.97 14.83 5.006 16.375 5.041 17.821 4.987 19.17 4.846 20.519 4.704 21.673 4.491 22.631 4.207 22.702 4.101 22.791 3.994 22.897 3.888 23.004 3.781 23.092 3.639 23.164 3.461 23.235 3.355 23.261 3.222 23.244 3.062 23.226 2.902 23.252 2.716 23.324 2.503 22.33 2.503 21.354 2.511 20.395 2.53 19.437 2.547 18.496 2.538 17.573 2.503 16.579 2.432 15.593 2.343 14.617 2.237 13.641 2.13 12.674 2.005 11.715 1.864 10.721 1.757 9.745 1.651 8.787 1.544 7.828 1.438 6.851 1.296 5.858 1.119 4.863 .976 3.896 .799 2.956 .586 2.015 .373 1.029 .177 0 0" fill="#2c2f31"/>
</g>
</g>
</svg>
